<?xml version="1.0" encoding="UTF-8"?>
<svg version="1.1" xmlns="http://www.w3.org/2000/svg" width="332" height="165">
<path d="M0 0 C6.6 0 13.2 0 20 0 C20.44730469 1.53527344 20.89460938 3.07054687 21.35546875 4.65234375 C21.96613507 6.74739897 22.57681278 8.84245087 23.1875 10.9375 C23.62545898 12.44086914 23.62545898 12.44086914 24.07226562 13.97460938 C26.69986752 22.9875664 29.35094922 31.99322735 32 41 C32.33 27.47 32.66 13.94 33 0 C37.95 0 42.9 0 48 0 C49.844719 1.844719 49.1200219 4.44516412 49.12442017 6.8993988 C49.11902725 8.1703817 49.11902725 8.1703817 49.11352539 9.46704102 C49.11367142 10.35476196 49.11381744 11.24248291 49.1139679 12.15710449 C49.11326843 15.10606284 49.10547448 18.05495887 49.09765625 21.00390625 C49.09579219 23.04271917 49.09436823 25.08153254 49.09336853 27.12034607 C49.08954241 32.49784574 49.07971132 37.87531858 49.06866455 43.25280762 C49.05845245 48.73559201 49.05387134 54.21838072 49.04882812 59.70117188 C49.03808914 70.46745973 49.02101159 81.23372764 49 92 C45.19079756 94.07973696 42.09892913 94.38339283 37.75 94.625 C35.85507813 94.73714844 35.85507813 94.73714844 33.921875 94.8515625 C32.95765625 94.90054688 31.9934375 94.94953125 31 95 C26.94830702 81.23345225 23.24204956 67.39700993 19.71679688 53.48803711 C19.23049805 51.57776733 19.23049805 51.57776733 18.734375 49.62890625 C18.30463379 47.9284314 18.30463379 47.9284314 17.86621094 46.19360352 C17.02591073 43.09552937 16.01509447 40.04528341 15 37 C15 56.8 15 76.6 15 97 C10 99 10 99 0 100 C0 67 0 34 0 0 Z " fill="#D31724" transform="translate(2,33)"/>
<path d="M0 0 C1.45792969 -0.0299707 1.45792969 -0.0299707 2.9453125 -0.06054688 C8.96837262 -0.05644397 12.40736115 0.45916316 17 4.4375 C21.5197248 9.33386854 23.23626622 13.62589787 23.30639648 20.26245117 C23.32238388 21.41102097 23.33837128 22.55959076 23.35484314 23.7429657 C23.36020584 24.97634171 23.36556854 26.20971771 23.37109375 27.48046875 C23.38463646 29.39863152 23.38463646 29.39863152 23.39845276 31.35554504 C23.41491203 34.06135575 23.4226366 36.76704323 23.42553711 39.47290039 C23.43090254 42.91487676 23.4685163 46.35566923 23.51428127 49.79731274 C23.55146452 53.10835573 23.55257938 56.41922452 23.55859375 59.73046875 C23.57812607 60.9537236 23.59765839 62.17697845 23.61778259 63.43730164 C23.57798157 71.06211562 22.57938475 77.16708001 18 83.4375 C10.77693311 89.85509861 2.98341581 91.98413541 -6.54296875 91.75 C-12.02064955 91.05331564 -16.23421319 88.60782652 -19.875 84.5 C-23.15255076 79.77647097 -24.24995363 76.21287556 -24.25878906 70.47314453 C-24.26509338 69.29487091 -24.27139771 68.11659729 -24.27789307 66.90261841 C-24.2738446 65.63795746 -24.26979614 64.37329651 -24.265625 63.0703125 C-24.26753845 61.76222626 -24.2694519 60.45414001 -24.27142334 59.10641479 C-24.27436633 56.34091453 -24.27010503 53.57554376 -24.26074219 50.81005859 C-24.24937042 47.28074848 -24.25589771 43.75174337 -24.26788712 40.22244453 C-24.27689256 36.83837673 -24.27056795 33.45438895 -24.265625 30.0703125 C-24.26967346 28.80970001 -24.27372192 27.54908752 -24.27789307 26.25027466 C-24.22811437 16.89688853 -23.93458715 10.37208715 -17 3.4375 C-11.51508606 -0.19323706 -6.35351156 -0.04634524 0 0 Z M-6 15.4375 C-7.26108735 17.95967469 -7.14752356 19.73490491 -7.17700195 22.55810547 C-7.18983719 23.62616425 -7.20267242 24.69422302 -7.21589661 25.79464722 C-7.22328354 26.95296051 -7.23067047 28.1112738 -7.23828125 29.3046875 C-7.246353 30.49095734 -7.25442474 31.67722717 -7.26274109 32.89944458 C-7.27658957 35.41292861 -7.28730829 37.92643151 -7.29516602 40.43994141 C-7.31239816 44.2897485 -7.35628137 48.13870139 -7.40039062 51.98828125 C-7.41051547 54.427077 -7.41903222 56.86588007 -7.42578125 59.3046875 C-7.44328934 60.45895233 -7.46079742 61.61321716 -7.47883606 62.80245972 C-7.47591049 63.87682281 -7.47298492 64.95118591 -7.4699707 66.05810547 C-7.47583694 67.00249481 -7.48170319 67.94688416 -7.48774719 68.91989136 C-6.85038217 72.20978358 -5.62589958 73.4167447 -3 75.4375 C0.09648876 75.60198881 0.09648876 75.60198881 3 74.4375 C5.88131227 71.42471647 6.37992369 69.29288795 6.40405273 65.18164062 C6.41673691 64.13375366 6.42942108 63.0858667 6.44248962 62.00622559 C6.43808617 60.31705017 6.43808617 60.31705017 6.43359375 58.59375 C6.44145653 56.85188416 6.44145653 56.85188416 6.44947815 55.0748291 C6.45589982 52.62036946 6.45455952 50.16587905 6.44604492 47.71142578 C6.43753191 43.9515927 6.46630194 40.19327683 6.49804688 36.43359375 C6.49965885 34.04947962 6.49908144 31.6653628 6.49609375 29.28125 C6.50732773 28.15513306 6.51856171 27.02901611 6.53013611 25.86877441 C6.52075516 24.82088745 6.51137421 23.77300049 6.50170898 22.69335938 C6.50154282 21.77276733 6.50137665 20.85217529 6.50120544 19.90368652 C5.83674571 16.63420561 4.63979851 15.42630399 2 13.4375 C-1.75482645 13.4375 -2.9681144 13.55563998 -6 15.4375 Z " fill="#CD1723" transform="translate(82,32.5625)"/>
<path d="M0 0 C5.94 0 11.88 0 18 0 C21.3 9.57 24.6 19.14 28 29 C31.3 19.43 34.6 9.86 38 0 C43.28 0 48.56 0 54 0 C52.76940158 5.96465387 51.23663674 11.57595282 49.14453125 17.2890625 C48.59901534 18.8227055 48.05411131 20.35656626 47.50976562 21.890625 C46.66040303 24.26716664 45.80640613 26.64170818 44.94165039 29.01269531 C44.09954133 31.32927077 43.27702171 33.65208145 42.45703125 35.9765625 C42.19565872 36.67778229 41.93428619 37.37900208 41.66499329 38.10147095 C39.1328929 45.36799119 40.80043333 50.8907468 43.14453125 57.97265625 C43.35559006 58.61762558 43.56664886 59.26259491 43.78410339 59.92710876 C44.45477282 61.97408489 45.13307725 64.01841435 45.8125 66.0625 C48.41438132 73.93278697 50.99650609 81.80853163 53.38671875 89.74609375 C53.89078247 91.40983032 53.89078247 91.40983032 54.4050293 93.10717773 C54.98289731 95.91684456 54.98892347 97.35148534 54 100 C51.38779828 99.85270669 48.7935269 99.6593372 46.1875 99.4375 C45.44951172 99.40076172 44.71152344 99.36402344 43.95117188 99.32617188 C41.79296875 99.12109375 41.79296875 99.12109375 38 98 C36.34013158 95.45289679 35.76401428 93.8811834 35 91 C34.53001587 89.42545044 34.53001587 89.42545044 34.05053711 87.8190918 C32.95425347 84.09779681 31.9079642 80.36419859 30.875 76.625 C30.16800395 74.07438066 29.45624207 71.52522919 28.7421875 68.9765625 C28.4313623 67.85330566 28.12053711 66.73004883 27.80029297 65.57275391 C27.24752266 63.09246754 27.24752266 63.09246754 26 62 C22.37 72.56 18.74 83.12 15 94 C3 93 3 93 -1 92 C-0.41517483 86.2753699 1.14455104 81.3905081 3.1953125 76.03125 C3.83513102 74.30877776 4.47443855 72.58611565 5.11328125 70.86328125 C6.11882827 68.1751025 7.12918791 65.48898202 8.14892578 62.80615234 C9.13668868 60.19866814 10.10465252 57.58448592 11.0703125 54.96875 C11.37856964 54.17376099 11.68682678 53.37877197 12.00442505 52.55969238 C14.96923333 44.45400847 12.99318479 38.34500012 10.05859375 30.546875 C9.77146011 29.76483704 9.48432648 28.98279907 9.18849182 28.17706299 C8.27798937 25.69892106 7.35858516 23.22422613 6.4375 20.75 C5.51359034 18.26123788 4.59176262 15.77178757 3.67579651 13.28009033 C3.10748133 11.73465063 2.53451445 10.1909118 1.95640564 8.64910889 C0.84521896 5.63198901 0 3.24259784 0 0 Z " fill="#C71623" transform="translate(277,33)"/>
<path d="M0 0 C13.53 0 27.06 0 41 0 C42 1 42 1 42.1328125 3.43359375 C42.13023437 4.42488281 42.12765625 5.41617188 42.125 6.4375 C42.12886719 7.92056641 42.12886719 7.92056641 42.1328125 9.43359375 C42 12 42 12 41 14 C33.08 14 25.16 14 17 14 C17 21.26 17 28.52 17 36 C23.27 36 29.54 36 36 36 C36 40.62 36 45.24 36 50 C29.73 50 23.46 50 17 50 C17 61.88 17 73.76 17 86 C11.39 86 5.78 86 0 86 C0 57.62 0 29.24 0 0 Z " fill="#C51623" transform="translate(161,33)"/>
<path d="M0 0 C15.84 0 31.68 0 48 0 C48 4.62 48 9.24 48 14 C43.05 14 38.1 14 33 14 C33 37.76 33 61.52 33 86 C18 87 18 87 16 86 C16 61.91 16 37.82 16 13 C15.01 13.33 14.02 13.66 13 14 C10.93854893 14.068991 8.87498599 14.08467727 6.8125 14.0625 C5.18248047 14.04896484 5.18248047 14.04896484 3.51953125 14.03515625 C2.68808594 14.02355469 1.85664062 14.01195312 1 14 C-1.09231398 9.81537205 0 4.67855628 0 0 Z " fill="#C51623" transform="translate(108,33)"/>
<path d="M0 0 C5.61 0 11.22 0 17 0 C16.98839844 1.25941406 16.97679687 2.51882812 16.96484375 3.81640625 C16.83277921 26.55007822 17.46750966 49.27427548 18 72 C18.99181274 72.03758423 18.99181274 72.03758423 20.00366211 72.07592773 C22.98182305 72.19153102 25.9596392 72.31441754 28.9375 72.4375 C29.97841797 72.47681641 31.01933594 72.51613281 32.09179688 72.55664062 C33.08115234 72.59853516 34.07050781 72.64042969 35.08984375 72.68359375 C36.00628662 72.72025146 36.92272949 72.75690918 37.86694336 72.79467773 C40 73 40 73 41 74 C41.07313567 76.53049402 41.09247527 79.03304837 41.0625 81.5625 C41.05798828 82.27341797 41.05347656 82.98433594 41.04882812 83.71679688 C41.03700864 85.47790013 41.01907263 87.23896036 41 89 C27.31708283 89 13.65261167 87.91017411 0 87 C0 58.29 0 29.58 0 0 Z " fill="#D41724" transform="translate(208,33)"/>
<path d="M0 0 C1.12535156 0.00580078 1.12535156 0.00580078 2.2734375 0.01171875 C3.02367187 0.00785156 3.77390625 0.00398438 4.546875 0 C10.14682697 0.01010822 10.14682697 0.01010822 11.2734375 1.13671875 C11.36863118 3.93661595 11.39897694 6.71178049 11.38696289 9.51196289 C11.38710892 10.38993027 11.38725494 11.26789764 11.3874054 12.17247009 C11.38670594 15.0889631 11.37891205 18.00539308 11.37109375 20.921875 C11.36922968 22.93826767 11.36780573 24.95466079 11.36680603 26.97105408 C11.36297994 32.28937013 11.35314889 37.60765905 11.34210205 42.92596436 C11.33188988 48.34842563 11.32730883 53.77089127 11.32226562 59.19335938 C11.3115267 69.84115778 11.29444919 80.48893601 11.2734375 91.13671875 C9.69142475 91.14861926 8.10938574 91.15705662 6.52734375 91.1640625 C5.20585327 91.17167603 5.20585327 91.17167603 3.85766602 91.17944336 C-4.82742705 91.0358542 -4.82742705 91.0358542 -6.7265625 89.13671875 C-6.82704773 86.40321127 -6.86272511 83.69493983 -6.85595703 80.9609375 C-6.85770935 80.10408356 -6.85946167 79.24722961 -6.86126709 78.3644104 C-6.86568667 75.51765955 -6.86274725 72.67097028 -6.859375 69.82421875 C-6.86004801 67.85506173 -6.86101801 65.88590478 -6.86227417 63.91674805 C-6.86375129 59.7840089 -6.86159614 55.65129133 -6.85693359 51.51855469 C-6.8512363 46.20847354 -6.85451523 40.89844294 -6.86050606 35.58836365 C-6.8641113 31.52046322 -6.86297326 27.45257486 -6.86037827 23.38467407 C-6.85970889 21.42615757 -6.86053777 19.46763999 -6.86285782 17.50912476 C-6.86538374 14.77688675 -6.86154461 12.04473178 -6.85595703 9.3125 C-6.85798126 8.49480133 -6.86000549 7.67710266 -6.86209106 6.83462524 C-6.83690144 0.2208182 -6.64440218 0.01199351 0 0 Z " fill="#D81622" transform="translate(259.7265625,32.86328125)"/>
<path d="M0 0 C0.33 0 0.66 0 1 0 C1.33 9.24 1.66 18.48 2 28 C-1.98225343 29.59290137 -4.23539461 30.29883157 -8.3125 30.625 C-9.19550781 30.69976562 -10.07851562 30.77453125 -10.98828125 30.8515625 C-11.65214844 30.90054688 -12.31601563 30.94953125 -13 31 C-11 29 -11 29 -1 27 C-0.67 18.09 -0.34 9.18 0 0 Z " fill="#D11927" transform="translate(15,102)"/>
<path d="M0 0 C0.66 0.66 1.32 1.32 2 2 C-2.8043208 4.4021604 -7.73103895 4.61122229 -13 5 C-10.58112915 2.58112915 -9.25907651 2.50623037 -5.9375 1.9375 C-2.66916048 1.58972434 -2.66916048 1.58972434 0 0 Z " fill="#75090D" transform="translate(15,128)"/>
</svg>
